Coordinates
version=1
nRows=11
nColumns=36
inDegrees=yes

Units are S.I. units (second, meters, Newtons, ...)
If the header above contains a line with 'inDegrees', this indicates whether rotational values are in degrees (yes) or radians (no).

endheader
time	pelvis_tilt	pelvis_list	pelvis_rotation	pelvis_tx	pelvis_ty	pelvis_tz	hip_flexion_r	hip_adduction_r	hip_rotation_r	knee_angle_r	knee_angle_r_beta	ankle_angle_r	subtalar_angle_r	mtp_angle_r	hip_flexion_l	hip_adduction_l	hip_rotation_l	knee_angle_l	knee_angle_l_beta	ankle_angle_l	subtalar_angle_l	mtp_angle_l	lumbar_extension	lumbar_bending	lumbar_rotation	arm_flex_r	arm_add_r	arm_rot_r	elbow_flex_r	pro_sup_r	arm_flex_l	arm_add_l	arm_rot_l	elbow_flex_l	pro_sup_l
      2.41666670	     -5.25157564	     -1.04906627	      8.44816042	      0.78870224	      1.15979916	     -0.08910561	      6.90855335	     -3.90893882	    -16.23858541	      3.22468553	      0.05628138	    -23.02640241	      1.76478676	     -7.49999987	      9.87655264	     -0.81387638	    -12.45094519	      5.96940933	      0.10418585	    -27.49641196	     -5.22992462	     -7.49999987	      9.76940586	     -3.44788583	      1.07161793	      2.80279236	    -25.63443146	     18.93443341	    105.56578079	     92.84471759	     -8.25714772	    -30.21049940	     17.86777718	     83.24532362	     94.11114915
      2.43333330	     -4.95869394	     -1.44127077	      8.86041596	      0.78358856	      1.18677815	     -0.09363096	      5.59644162	     -3.01392436	    -17.58081250	      3.88674206	      0.06783645	    -25.55992606	      0.51486848	     -7.49999987	      8.85522936	     -0.64974561	    -12.02544701	      6.76647548	      0.11809728	    -27.56007869	     -4.33594747	     -7.49999987	     10.22297206	     -2.86210444	      5.79866921	    -10.01926032	    -21.28691195	      6.79717706	    102.01202082	     96.08612770	     -3.82419743	    -26.82630867	     24.75921119	     70.42958532	     94.74984841
      2.45000000	     -4.22019945	     -1.87078794	      8.80265821	      0.77697365	      1.20163293	     -0.09201328	      4.68557342	     -1.94407558	    -17.07629606	      5.27501265	      0.09206634	    -26.52476479	     -0.94718072	     -7.49999987	      7.86284126	     -0.71403472	    -10.80833755	      8.45469624	      0.14756229	    -26.90987863	     -3.89758354	     -7.49999987	     10.18359679	     -1.97783666	      6.78307054	    -14.17667947	    -17.69339196	      2.11228852	     94.62759415	     96.78959627	     -2.08587372	    -23.59109212	     27.45381710	     56.94197868	     92.32732431
      2.46666670	     -3.47667499	     -2.30227498	      9.28921293	      0.76673832	      1.21565998	     -0.09291353	      4.53214091	     -1.05668086	    -15.16773404	      7.43391971	      0.12974638	    -27.02933186	     -2.41820097	     -7.49999987	      7.78250942	     -0.78606600	     -8.25589613	     11.04775895	      0.19281977	    -26.99059762	     -4.75290822	     -7.49999987	      9.67276888	     -1.05488832	      6.57890957	    -16.19836350	    -15.90803382	     -1.33432816	     88.76955327	     96.28877462	     -1.73232899	    -20.43936814	     30.19080537	     44.46233780	     90.46320774
      2.48333330	     -2.78652185	     -2.44568774	      9.65923271	      0.76224693	      1.24449922	     -0.09850127	      4.57737407	     -0.70406045	    -13.09017689	      9.30781789	      0.16245207	    -26.47163464	     -2.77583731	     -7.49999987	      7.83263542	     -0.47775399	     -6.15106238	     13.33334949	      0.23271085	    -27.46829040	     -5.29740186	     -7.49999987	      9.19937658	     -0.43539521	      5.84143288	    -16.20449701	    -15.43946137	     -2.49586436	     79.08279315	     94.32669158	     -2.62805819	    -16.78972409	     29.19639042	     34.46604906	     88.73001101
      2.50000000	     -2.06482781	     -2.36262868	      9.87076109	      0.76286891	      1.26398307	     -0.09874364	      4.34180717	     -0.51883552	    -11.42384179	     10.27016641	      0.17924822	    -25.87390884	     -2.25747571	     -7.49999987	      7.77779635	     -0.17193046	     -4.70922298	     15.09338673	      0.26342929	    -28.30304455	     -6.07182367	     -7.49999987	      8.47009681	     -0.26248628	      4.99846104	    -16.72133193	    -14.95429376	     -2.78366123	     70.01843052	     91.81492360	     -3.78229993	    -14.01576632	     28.95877523	     26.86994070	     85.90330739
      2.51666670	     -1.30964618	     -2.23864463	     10.22279364	      0.75726402	      1.28100712	     -0.09756364	      4.18518799	     -0.36833785	    -10.28266149	     10.79646174	      0.18843380	    -24.85988053	     -3.00561263	     -7.49999987	      7.85592690	     -0.08941737	     -3.45302551	     16.15222849	      0.28190957	    -28.50920731	     -6.27564351	     -7.49999987	      7.68131126	      0.01399201	      5.54515485	    -17.48704871	    -14.10052926	     -4.32380608	     62.55562309	     90.22620123	     -5.53561784	    -12.17970857	     27.62539125	     23.59765181	     84.51471786
      2.53333330	     -0.50549472	     -2.03850687	     10.59769259	      0.75764579	      1.29119071	     -0.09771683	      3.57967310	     -0.43194375	    -10.45930925	     10.65956498	      0.18604451	    -23.44744509	     -3.07067411	     -7.49999987	      7.64070232	     -0.10853594	     -2.93174001	     16.41426717	      0.28648301	    -28.52835273	     -6.57315162	     -7.49999987	      7.23089761	      0.00860419	      6.28968339	    -18.58785704	    -12.93928297	     -5.26053643	     55.11755046	     89.92089580	     -5.86756692	    -10.78024971	     26.46675359	     21.12780236	     84.16121093
      2.55000000	     -0.16337131	     -1.86742717	     10.94238527	      0.75720621	      1.29316939	     -0.09858526	      3.33135524	     -0.54452213	    -10.81263735	     10.09612916	      0.17621070	    -22.34663749	     -3.37024798	     -7.49999987	      7.70885343	     -0.22279523	     -3.15134057	     16.20774807	      0.28287857	    -27.88307528	     -7.32396062	     -7.49999987	      7.22843030	     -0.28859868	      5.78561627	    -18.73256809	    -12.08088124	     -5.24366530	     48.16859054	     89.10531479	     -6.04473434	     -9.37038457	     23.18728779	     18.28640846	     82.92577645
      2.56666670	      0.06898922	     -1.67733568	     11.23033051	      0.75732504	      1.29745271	     -0.09829819	      3.00805281	     -0.72078347	    -11.55953136	      9.16654307	      0.15998636	    -21.76099525	     -3.01902797	     -7.49999987	      7.37749896	     -0.41140361	     -4.04738679	     15.39468454	      0.26868793	    -27.70990315	     -8.43000226	     -7.49999987	      7.31345655	     -0.74720641	      5.54810271	    -19.45597026	    -10.96000381	     -6.71739907	     42.98571019	     88.66506206	     -5.72142226	     -8.82635874	     22.31141625	     16.90738663	     82.58947466
      2.58333330	     -0.07347677	     -1.54018187	     11.21712664	      0.75716698	      1.29857702	     -0.09895571	      3.14280685	     -0.96132365	    -12.32089714	      8.49766428	      0.14831222	    -21.36700042	     -2.74825458	     -7.49999987	      7.17836701	     -0.59333049	     -4.85956675	     14.13641050	      0.24672691	    -27.12397323	     -8.88564074	     -7.49999987	      7.72058392	     -1.15559117	      4.94169862	    -20.30560967	     -9.99884976	     -8.66536063	     38.29842876	     87.45785797	     -5.61659353	     -8.17542656	     21.02050948	     15.56161187	     81.34212654
